HIERARCHY
ROOT Hips
{
	OFFSET 0.000000 0.000000 0.000000
	CHANNELS 6 Xposition Yposition Zposition Zrotation Yrotation Xrotation 
	JOINT LHipJoint
	{
		OFFSET 0.000000 0.000000 0.000000
		CHANNELS 3 Zrotation Yrotation Xrotation
		JOINT LeftUpLeg
		{
			OFFSET 1.363060 -1.794630 0.839290
			CHANNELS 3 Zrotation Yrotation Xrotation
			JOINT LeftLeg
			{
				OFFSET 2.448110 -6.726130 0.000000
				CHANNELS 3 Zrotation Yrotation Xrotation
				JOINT LeftFoot
				{
					OFFSET 2.562200 -7.039590 0.000000
					CHANNELS 3 Zrotation Yrotation Xrotation
					JOINT LeftToeBase
					{
						OFFSET 0.157640 -0.433110 2.322550
						CHANNELS 3 Zrotation Yrotation Xrotation
						End Site
						{
							OFFSET 0.000000 0.000000 0.000000
						}
					}
				}
			}
		}
	}
	JOINT RHipJoint
	{
		OFFSET 0.000000 0.000000 0.000000
		CHANNELS 3 Zrotation Yrotation Xrotation
		JOINT RightUpLeg
		{
			OFFSET -1.305520 -1.794630 0.839290
			CHANNELS 3 Zrotation Yrotation Xrotation
			JOINT RightLeg
			{
				OFFSET -2.542530 -6.985550 0.000000
				CHANNELS 3 Zrotation Yrotation Xrotation
				JOINT RightFoot
				{
					OFFSET -2.568260 -7.056230 0.000000
					CHANNELS 3 Zrotation Yrotation Xrotation
					JOINT RightToeBase
					{
						OFFSET -0.164730 -0.452590 2.363150
						CHANNELS 3 Zrotation Yrotation Xrotation
						End Site
						{
							OFFSET 0.000000 0.000000 0.000000
						}
					}
				}
			}
		}
	}
	JOINT LowerBack
	{
		OFFSET 0.000000 0.000000 0.000000
		CHANNELS 3 Zrotation Yrotation Xrotation
		JOINT Spine
		{
			OFFSET 0.028270 2.035590 -0.193380
			CHANNELS 3 Zrotation Yrotation Xrotation
			JOINT Spine1
			{
				OFFSET 0.056720 2.048850 -0.042750
				CHANNELS 3 Zrotation Yrotation Xrotation
				JOINT Neck
				{
					OFFSET 0.000000 0.000000 0.000000
					CHANNELS 3 Zrotation Yrotation Xrotation
					JOINT Neck1
					{
						OFFSET -0.054170 1.746240 0.172020
						CHANNELS 3 Zrotation Yrotation Xrotation
						JOINT Head
						{
							OFFSET 0.104070 1.761360 -0.123970
							CHANNELS 3 Zrotation Yrotation Xrotation
							End Site
							{
								OFFSET 0.000000 0.000000 0.000000
							}
						}
					}
				}
				JOINT LeftShoulder
				{
					OFFSET 0.000000 0.000000 0.000000
					CHANNELS 3 Zrotation Yrotation Xrotation
					JOINT LeftArm
					{
						OFFSET 3.362410 1.200890 -0.311210
						CHANNELS 3 Zrotation Yrotation Xrotation
						JOINT LeftForeArm
						{
							OFFSET 4.983000 -0.000000 -0.000000
							CHANNELS 3 Zrotation Yrotation Xrotation
							JOINT LeftHand
							{
								OFFSET 3.483560 -0.000000 -0.000000
								CHANNELS 3 Zrotation Yrotation Xrotation
								JOINT LeftFingerBase
								{
									OFFSET 0.000000 0.000000 0.000000
									CHANNELS 3 Zrotation Yrotation Xrotation
									JOINT LeftHandIndex1
									{
										OFFSET 0.715260 -0.000000 -0.000000
										CHANNELS 3 Zrotation Yrotation Xrotation
										End Site
										{
											OFFSET 0.000000 0.000000 0.000000
										}
									}
								}
								JOINT LThumb
								{
									OFFSET 0.000000 0.000000 0.000000
									CHANNELS 3 Zrotation Yrotation Xrotation
									End Site
									{
										OFFSET 0.000000 0.000000 0.000000
									}
								}
							}
						}
					}
				}
				JOINT RightShoulder
				{
					OFFSET 0.000000 0.000000 0.000000
					CHANNELS 3 Zrotation Yrotation Xrotation
					JOINT RightArm
					{
						OFFSET -3.136600 1.374050 -0.404650
						CHANNELS 3 Zrotation Yrotation Xrotation
						JOINT RightForeArm
						{
							OFFSET -5.241900 -0.000000 -0.000000
							CHANNELS 3 Zrotation Yrotation Xrotation
							JOINT RightHand
							{
								OFFSET -3.444170 -0.000000 -0.000000
								CHANNELS 3 Zrotation Yrotation Xrotation
								JOINT RightFingerBase
								{
									OFFSET 0.000000 0.000000 0.000000
									CHANNELS 3 Zrotation Yrotation Xrotation
									JOINT RightHandIndex1
									{
										OFFSET -0.622530 -0.000000 -0.000000
										CHANNELS 3 Zrotation Yrotation Xrotation
										End Site
										{
											OFFSET 0.000000 0.000000 0.000000
										}
									}
								}
								JOINT RThumb
								{
									OFFSET 0.000000 0.000000 0.000000
									CHANNELS 3 Zrotation Yrotation Xrotation
									End Site
									{
										OFFSET 0.000000 0.000000 0.000000
									}
								}
							}
						}
					}
				}
			}
		}
	}
}
MOTION
Frames: 7
Frame Time: 0.008333
11.945288 17.871372 0.138386 37.544051 -86.395582 -24.805781 -3.965422 -0.190350 -0.768329 3.156195 -10.727367 -25.012197 1.155960 10.494439 26.478785 -5.817949 18.129072 14.171225 0.636200 -5.103300 -14.203300 0.873222 -1.069500 0.359755 -2.305520 10.631340 -24.412537 -1.940039 -10.988810 31.498525 1.170956 -6.545522 0.559486 -0.689600 5.309000 -14.792100 -1.354359 0.285626 2.743741 0.620386 -0.052121 -4.459898 -0.263318 0.338783 -2.717839 -6.473286 -5.541509 -12.045353 1.083451 -6.612387 13.406843 -0.528800 -3.404300 5.104600 -5.403108 -14.490215 1.982558 -52.387669 -41.722510 26.291778 86.649098 -50.984126 -60.534631 0.431021 -0.045115 30.040886 -12.554680 -10.913930 2.530100 -7.125000 0.000000 0.000000 -27.206300 19.001300 19.143700 4.600169 15.164574 3.450603 38.872835 26.738190 6.828761 -98.862146 51.572612 -74.434379 -0.667919 2.320253 22.863260 9.736302 -55.448913 -9.421100 7.125000 0.000000 0.000000 88.314700 -68.379100 -64.849400 
11.946703 17.873258 0.136146 37.638319 -86.402546 -24.855846 -3.960369 -0.203003 -0.778441 3.173566 -10.730183 -25.044577 1.140919 10.476084 26.417713 -5.792794 18.092719 14.225601 0.639700 -5.117100 -14.242900 0.876139 -1.059000 0.353767 -2.321574 10.669546 -24.446835 -1.932202 -10.978507 31.460808 1.174408 -6.554280 0.612691 -0.674600 5.251900 -14.628600 -1.374881 0.280173 2.698980 0.618143 -0.060205 -4.468204 -0.274762 0.332557 -2.716288 -6.228310 -5.480179 -12.047062 0.910162 -6.535138 13.409694 -0.635700 -3.363800 5.084200 -5.391877 -14.477085 1.977596 -52.387944 -41.773657 26.265100 86.642307 -50.974682 -60.519658 0.447359 -0.046515 29.810379 -12.959584 -10.552309 2.532200 -7.125000 0.000000 0.000000 -27.530100 19.305900 19.220400 4.608572 15.177965 3.454267 38.922232 26.765671 6.828713 -98.924108 51.571376 -74.464778 -0.647904 2.327868 22.851785 9.693361 -56.034601 -9.432100 7.125000 0.000000 0.000000 89.766000 -68.469300 -66.512000 
11.943167 17.875379 0.133907 37.808416 -86.362776 -25.101831 -3.990638 -0.175877 -0.757460 3.154496 -10.742759 -24.951643 1.132407 10.458808 26.374592 -5.831589 18.170806 14.226546 0.687300 -5.300100 -14.766600 0.884324 -1.078680 0.367307 -2.333401 10.676239 -24.331091 -1.930291 -10.972026 31.450833 1.185335 -6.580508 0.588098 -0.660600 5.198300 -14.474900 -1.454246 0.238989 2.731860 0.636135 -0.112627 -4.445578 -0.195187 0.305890 -2.671236 -5.940671 -5.411815 -12.066530 0.633146 -6.439696 13.332097 -0.789200 -3.318800 5.031600 -5.375587 -14.461482 1.981847 -52.400465 -41.803135 26.125361 86.698198 -50.977025 -60.571277 0.461214 -0.046496 29.591907 -13.318336 -10.227977 2.528600 -7.125000 0.000000 0.000000 -27.818200 19.577300 19.284600 4.628288 15.191958 3.451222 38.878502 26.832915 6.784896 -98.967567 51.573317 -74.494007 -0.667434 2.339624 22.957418 10.736202 -55.985688 -10.335100 7.125000 0.000000 0.000000 89.941500 -68.110700 -66.247400 
11.938452 17.876322 0.134732 38.213208 -86.369494 -25.531119 -4.007868 -0.164374 -0.749470 3.129652 -10.721009 -24.914368 1.132599 10.449645 26.342130 -5.890372 18.298448 14.251547 0.714000 -5.400100 -15.053400 0.889444 -1.089457 0.375013 -2.351194 10.688824 -24.277512 -1.925455 -10.965076 31.428496 1.187388 -6.586683 0.590695 -0.657500 5.186200 -14.440300 -1.468508 0.213535 2.711909 0.647039 -0.146670 -4.438170 -0.163318 0.288595 -2.633252 -5.817807 -5.288230 -12.067570 0.547891 -6.277495 13.234881 -0.836400 -3.238400 4.986000 -5.368720 -14.450273 1.995537 -52.433981 -41.637802 25.999942 86.873937 -51.022071 -60.762255 0.447447 -0.041995 29.705671 -12.988306 -10.432637 2.510300 -7.125000 0.000000 0.000000 -27.569100 19.410100 19.180800 4.636472 15.190433 3.445005 38.897329 26.900261 6.815690 -99.050525 51.568634 -74.564842 -0.675373 2.339857 23.066561 11.020759 -55.847910 -10.570200 7.125000 0.000000 0.000000 89.682500 -67.996500 -65.823500 
11.935976 17.877030 0.134378 38.577009 -86.414534 -25.851328 -3.998127 -0.176244 -0.754558 3.131364 -10.686536 -24.958593 1.135312 10.445832 26.320226 -5.932761 18.382539 14.236903 0.716300 -5.408600 -15.077600 0.892453 -1.084037 0.375654 -2.360957 10.728552 -24.326982 -1.920315 -10.960393 31.404267 1.198082 -6.611198 0.606795 -0.658600 5.190500 -14.452600 -1.449240 0.234516 2.653376 0.643752 -0.127594 -4.488959 -0.176403 0.303298 -2.758113 -5.906576 -5.163848 -11.757003 0.716917 -6.155170 13.142506 -0.742800 -3.172600 4.897000 -5.377275 -14.449533 2.023168 -52.569980 -41.322355 26.069353 87.112662 -51.082888 -61.019470 0.435911 -0.035654 29.784854 -12.711427 -10.548120 2.480600 -7.125000 0.000000 0.000000 -27.369900 19.318300 19.067000 4.633797 15.172319 3.456860 39.053961 26.751964 7.030098 -99.173099 51.571986 -74.682868 -0.672672 2.318959 22.885836 10.002040 -55.572870 -9.662100 7.125000 0.000000 0.000000 88.685900 -68.304300 -65.148800 
11.934090 17.877973 0.132257 38.180654 -86.428347 -25.452317 -3.989187 -0.175903 -0.758652 3.170516 -10.715879 -24.946944 1.134143 10.446494 26.321531 -5.937496 18.368527 14.147118 0.682900 -5.283500 -14.719100 0.898262 -1.082465 0.371553 -2.329220 10.741898 -24.320216 -1.918156 -10.959259 31.404143 1.221549 -6.663610 0.545861 -0.677200 5.261900 -14.657100 -1.426115 0.239248 2.685146 0.646325 -0.115733 -4.463197 -0.180038 0.305646 -2.679476 -5.927252 -5.106853 -12.098403 0.865440 -6.054689 13.224520 -0.696500 -3.115400 5.009600 -5.371789 -14.450870 2.003519 -52.467099 -41.409415 25.983800 87.096190 -51.073169 -61.001271 0.435442 -0.033672 29.777062 -12.763998 -10.621841 2.507800 -7.125000 0.000000 0.000000 -27.386600 19.247600 19.132500 4.631109 15.180381 3.441815 38.955931 26.828087 6.914277 -99.185777 51.571034 -74.697230 -0.675198 2.321758 22.841084 10.047248 -55.614717 -9.706400 7.125000 0.000000 0.000000 88.806800 -68.294300 -65.264900 
11.933737 17.876676 0.132374 37.597313 -86.405164 -24.897581 -3.994329 -0.161820 -0.740748 3.192690 -10.750399 -24.909120 1.132414 10.446026 26.331895 -5.906100 18.300280 14.140320 0.654500 -5.174900 -14.408000 0.898320 -1.088617 0.381012 -2.306996 10.727210 -24.293946 -1.921279 -10.960402 31.423512 1.208256 -6.630865 0.520162 -0.669800 5.233600 -14.576200 -1.387689 0.214803 2.748112 0.644689 -0.149090 -4.496769 -0.222312 0.290467 -2.807798 -5.860192 -5.066343 -12.034135 0.868977 -6.014654 13.284646 -0.705500 -3.092300 5.019200 -5.370948 -14.445351 2.006854 -52.518515 -41.278984 26.037858 87.063187 -51.076850 -60.965172 0.436848 -0.033124 29.763734 -12.802408 -10.626591 2.517000 -7.125000 0.000000 0.000000 -27.409500 19.240400 19.158200 4.630353 15.188612 3.452956 39.096462 26.747707 6.996072 -99.288478 51.568080 -74.781860 -0.678383 2.326139 22.966964 10.535791 -55.700768 -10.136600 7.125000 0.000000 0.000000 89.158900 -68.139800 -65.444200 
